<svg version="1.1" xmlns="http://www.w3.org/2000/svg" xmlns:xlink="http://www.w3.org/1999/xlink" width="129.84334" height="86.42401" viewBox="0,0,129.84334,86.42401"><g transform="translate(-176.25603,-130.89383)"><g data-paper-data="{&quot;isPaintingLayer&quot;:true}" fill-rule="nonzero" stroke="none" stroke-width="1" stroke-linecap="butt" stroke-linejoin="miter" stroke-miterlimit="10" stroke-dasharray="" stroke-dashoffset="0" style="mix-blend-mode: normal"><path d="M233.52603,200.31068c0,1.98 -0.63,8.7 -8.81,12.14c-1.92,0.82 -4.03,1.24 -6.27,1.24c-2.28,0 -4.7,-0.42 -7.38,-1.29c-2.08,-0.67 -5.09,-1.51 -8.97,-2.51c-4.76,3.33 -8.4,4.76 -12.02,4.76c-3.79,0 -7.39,-1.52 -10.15,-4.27c-2.07,-2.06 -3.23,-4.86 -3.23,-7.78v-1.94c0,-1.22 0.21,-2.84 1,-4.59c0.41,-3.57 1.27,-7.09 2.56,-10.49c0.35,-0.98 1.01,-2.62 2.85,-6.55c1.85,-3.87 4.63,-7.91 8.48,-12.27c-0.68,0.09 -1.31,0.13 -1.87,0.13c-6.69,0 -13.46,-4.9 -13.46,-14.26c0,-3.17 1.12,-6.37 3.99,-11.42c0.85,-1.49 2.03,-2.76 3.46,-3.71c0.19,-0.13 0.43,-0.29 0.7,-0.48c0.73,-0.61 1.58,-1.2 2.63,-1.85c0.69,-0.42 1.42,-0.77 2.18,-1.03c1.79,-0.62 3.65,-1.23 5.55,-1.82c2.73,-0.85 5.22,-1.31 7.6,-1.41h0.12c5.39,-0.16 10.51,0.82 15.28,2.93c4.46,1.91 8.04,5.21 10.65,9.82c2.45,4.34 3.57,8.71 3.34,13c-0.01,0.12 -0.02,0.24 -0.03,0.37c-0.35,3.97 -1.7,7.63 -4.03,10.88c-0.11,0.16 -0.24,0.32 -0.36,0.48c-0.73,0.92 -2.01,2.36 -5.39,5.41c-1.98,2.07 -4.75,4.87 -8.43,8.52c-0.36,0.52 -0.75,1.04 -1.18,1.55c1.36,0.36 2.75,0.82 4.2,1.35l1.6,0.58c0.27,-0.01 0.53,-0.01 0.79,-0.01c5.69,0 9.14,2.48 11.04,4.57c0.05,0.05 0.09,0.1 0.14,0.15c2.08,2.38 3.23,5.5 3.41,9.27c0.01,0.17 0.01,0.35 0.01,0.53z" fill="#00cccc"/><path d="M222.53003,200.30768c0,0.761 -0.704,1.436 -2.111,2.022c-1.35,0.586 -3.343,0.454 -5.981,-0.396c-2.639,-0.851 -6.509,-1.922 -11.61,-3.211c-2.405,-0.294 -4.486,0.234 -6.245,1.584c-3.05,2.228 -5.221,3.342 -6.51,3.342c-0.879,0 -1.671,-0.352 -2.375,-1.054v-1.933c0,-0.059 0.073,-0.176 0.221,-0.351c0.146,-0.177 0.233,-0.367 0.264,-0.57c0.028,-0.206 0.132,-0.543 0.308,-1.01c0.233,-3.221 0.938,-6.353 2.111,-9.398c0.293,-0.877 1.113,-2.75 2.463,-5.62c1.759,-3.688 4.954,-7.933 9.588,-12.735c1.348,-1.287 3.283,-3.22 5.805,-5.797c1.113,-1.053 2.229,-2.078 3.343,-3.073c1.583,-1.521 2.403,-2.721 2.463,-3.601c0.116,-0.176 0.264,-0.469 0.439,-0.878c0.058,-0.644 0.029,-1.521 -0.088,-2.635c-0.059,-0.117 -0.132,-0.381 -0.22,-0.79c-0.088,-0.41 -0.191,-1.054 -0.308,-1.933c-1.76,-3.513 -5.132,-5.27 -10.115,-5.27c-3.343,0 -5.894,0.843 -7.653,2.526c-0.176,0.058 -0.41,0.146 -0.703,0.261c-0.998,0.639 -1.613,1.249 -1.848,1.829c-1.231,2.846 -2.581,4.268 -4.046,4.268c-1.643,0 -2.463,-1.084 -2.463,-3.254c0,-0.997 0.85,-2.991 2.551,-5.981c0.352,-0.234 0.82,-0.557 1.407,-0.968c0.293,-0.293 0.82,-0.674 1.584,-1.144c1.699,-0.586 3.443,-1.157 5.233,-1.715c1.788,-0.557 3.387,-0.865 4.794,-0.924c3.752,-0.117 7.271,0.558 10.555,2.022c2.228,0.939 4.046,2.654 5.454,5.146c1.407,2.493 2.052,4.823 1.935,6.992c-0.176,1.994 -0.851,3.812 -2.023,5.454c-0.703,0.879 -2.198,2.346 -4.485,4.397c-2.054,2.171 -5.22,5.366 -9.5,9.588c-0.352,0.822 -1.144,1.73 -2.375,2.727c-0.059,0.235 -0.206,0.587 -0.439,1.056c-0.763,1.35 -1.847,2.845 -3.255,4.486c0.058,0.527 -0.176,1.144 -0.703,1.847c-0.646,0.998 -0.968,1.555 -0.968,1.672c-0.47,1.114 -1.086,2.757 -1.848,4.926c-0.176,0.704 -0.47,1.789 -0.879,3.255c1.348,-0.41 3.136,-0.909 5.365,-1.496c1.349,-0.233 2.668,-0.352 3.958,-0.352c2.64,0 5.688,0.646 9.148,1.936c0.82,0.294 2.052,0.733 3.694,1.319c0.82,-0.058 1.641,-0.088 2.463,-0.088c1.348,0 2.315,0.322 2.902,0.968c0.408,0.471 0.644,1.322 0.703,2.554z" fill="#ffffff"/><path d="M306.09937,187.57784c0,4.23 -0.78,8.06 -2.32,11.42c-0.49,1.3 -1.2,2.64 -2.17,4.15c-0.44,0.68 -0.96,1.31 -1.54,1.88c-8.09,7.93 -19.14,12.07 -32.85,12.29h-0.18c-2.76,0 -5.6,-0.66 -8.45,-1.97c-0.17,-0.07 -0.33,-0.15 -0.49,-0.24c-2.51,-1.3 -5.12,-3.25 -7.99,-5.95c-3.79,-3.52 -5.99,-6.63 -6.98,-9.93c-0.13,-0.31 -0.3,-0.71 -0.51,-1.18c-0.41,-0.95 -0.69,-1.95 -0.82,-2.98c-0.18,-0.41 -0.33,-0.83 -0.46,-1.27c-0.4,-1.4 -0.6,-2.9 -0.6,-4.46c0,-4.25 1.41,-8.6 4.21,-12.94c0.87,-1.36 1.79,-2.52 2.73,-3.5c-0.92,-0.7 -1.76,-1.52 -2.51,-2.46c-0.2,-0.24 -0.38,-0.5 -0.56,-0.76c-1.81,-2.72 -2.17,-5.65 -2.27,-7.62c-0.01,-0.08 -0.01,-0.17 -0.02,-0.25c-0.03,-0.38 -0.2,-1.83 -0.95,-6.5c-0.27,-0.66 -0.47,-1.34 -0.61,-2.05c-0.19,-1.01 -0.33,-1.71 -0.41,-2.08c-0.21,-0.85 -0.32,-1.74 -0.32,-2.65c0,-3.3 1.1,-6.32 3.18,-8.74c0.18,-0.22 0.37,-0.42 0.57,-0.62c3.05,-3.05 7.2,-4.67 12.33,-4.8c0.1,-0.01 0.19,-0.01 0.29,-0.01c1.18,0 4.24,-0.04 12.1,-0.26h0.3c0.35,0 2.12,-0.04 10.31,-0.57c0.86,-0.11 1.74,-0.22 2.64,-0.32c0.98,-0.12 1.88,-0.18 2.74,-0.18c2.71,0 5.03,0.59 7.08,1.79c2.46,1.46 4.36,3.58 5.53,6.14c2.22,4.83 1.51,10.21 -1.91,14.42c-0.48,0.59 -1.02,1.13 -1.61,1.61c-0.76,1.12 -1.68,2.4 -2.79,3.85c6.82,3.81 10.53,8.97 12.54,13.62c0.38,0.61 0.72,1.27 1.03,1.98c0.3,0.67 0.53,1.38 0.69,2.1c0.7,3.17 1.05,6.21 1.05,9.04zM241.15937,153.37784c-0.29,-0.59 -0.53,-1.21 -0.72,-1.86c0.18,0.65 0.42,1.27 0.7,1.86z" fill="#00cccc"/><path d="M294.30737,180.89684c0.528,2.405 0.792,4.633 0.792,6.685c0,2.814 -0.499,5.22 -1.495,7.213c-0.176,0.587 -0.587,1.379 -1.231,2.375c-6.041,5.922 -14.484,8.972 -25.333,9.148c-1.174,0 -2.463,-0.323 -3.87,-0.968c-1.583,-0.822 -3.431,-2.229 -5.541,-4.223c-2.405,-2.228 -3.754,-4.016 -4.047,-5.365c-0.176,-0.469 -0.47,-1.173 -0.879,-2.111c0,-0.117 -0.206,-1.407 -0.616,-3.87c-0.118,0.176 -0.176,0.499 -0.176,0.968c-0.118,-0.41 -0.176,-0.88 -0.176,-1.407c0,-2.111 0.82,-4.442 2.463,-6.993c1.641,-2.551 3.431,-3.826 5.365,-3.826c0.938,0 1.848,0.353 2.727,1.06c0.234,0.177 0.353,0.56 0.353,1.147c0,0.236 -0.104,0.546 -0.308,0.928c-0.207,0.382 -0.339,0.691 -0.396,0.926c-0.821,0.707 -1.643,1.413 -2.463,2.12c-1.174,1.118 -1.818,2.06 -1.935,2.825c-0.118,0.471 -0.177,0.971 -0.177,1.501c0,2.944 1.32,5.843 3.959,8.697c2.639,2.854 5.423,4.281 8.356,4.281c0.527,0 1.084,-0.059 1.671,-0.176c0.996,-0.06 2.463,-0.178 4.397,-0.354c2.287,-0.529 4.632,-1.408 7.037,-2.643c2.932,-1.527 4.75,-3.157 5.453,-4.891c0.704,-1.731 1.056,-3.627 1.056,-5.683c0,-1.996 -0.352,-3.846 -1.056,-5.55c-0.176,-0.471 -0.439,-1.146 -0.791,-2.027c-2.347,-3.524 -4.956,-5.726 -7.828,-6.608c-0.704,-0.233 -2.171,-0.381 -4.398,-0.439c-2.229,-0.06 -3.842,-0.147 -4.838,-0.266c-1.935,-0.233 -3.489,-0.733 -4.662,-1.498c-0.352,-0.409 -0.527,-0.908 -0.527,-1.496c0,-1.41 0.585,-2.468 1.759,-3.173c0.938,-0.587 2.668,-2.937 5.19,-7.049c1.699,-2.408 4.162,-5.991 7.389,-10.749c-7.213,0 -14.368,0.439 -21.463,1.319c0,0.88 0.205,2.493 0.616,4.838c0.527,3.108 0.82,4.956 0.879,5.542c0.058,0.703 -0.234,1.422 -0.879,2.154c-0.646,0.734 -1.467,1.188 -2.463,1.363c-0.939,0.177 -1.76,-0.176 -2.463,-1.055c-0.235,-0.353 -0.383,-1.056 -0.44,-2.111c0,-0.88 -0.47,-4.163 -1.407,-9.852c-0.059,-0.117 -0.176,-0.264 -0.352,-0.44c-0.353,-1.816 -0.528,-2.696 -0.528,-2.639c0,-0.645 0.176,-1.172 0.528,-1.583c0.996,-0.996 2.608,-1.524 4.838,-1.583c1.816,0 5.951,-0.088 12.402,-0.265c1.231,0 5.014,-0.204 11.347,-0.615c0.938,-0.117 1.905,-0.233 2.902,-0.352c1.465,-0.176 2.448,-0.117 2.947,0.176c0.497,0.294 0.864,0.703 1.099,1.231c0.469,0.998 0.322,1.965 -0.439,2.902c-0.411,0.235 -0.91,0.675 -1.495,1.319c-0.763,1.231 -1.922,2.859 -3.475,4.882c-1.554,2.023 -2.683,3.622 -3.386,4.794c-0.939,1.643 -2.375,4.105 -4.311,7.389c10.496,1.583 17.034,5.894 19.615,12.931c0.234,0.237 0.47,0.618 0.704,1.146z" fill="#ffffff"/></g></g></svg>