<svg version="1.1" xmlns="http://www.w3.org/2000/svg" xmlns:xlink="http://www.w3.org/1999/xlink" width="113.13287" height="79.97" viewBox="0,0,113.13287,79.97"><g transform="translate(-176.51192,-139.11961)"><g data-paper-data="{&quot;isPaintingLayer&quot;:true}" fill-rule="nonzero" stroke="none" stroke-width="1" stroke-linecap="butt" stroke-linejoin="miter" stroke-miterlimit="10" stroke-dasharray="" stroke-dashoffset="0" style="mix-blend-mode: normal"><path d="M224.92881,206.49961c-0.22,2.13 -1.06,4.14 -2.41,5.8c-1.98,2.44 -4.29,4.18 -6.86,5.17c-2.36,0.91 -4.99,1.22 -8.23,0.97c-0.38,-0.03 -0.67,-0.04 -0.88,-0.05c-0.04,0.01 -0.08,0.02 -0.13,0.03c-1.74,0.46 -3.19,0.67 -4.57,0.67c-1.24,0 -2.34,-0.21 -3.29,-0.49c-1.38,0.09 -2.49,0.13 -3.39,0.13h-4.21c-1.91,-0.08 -7.61,-0.3 -11.11,-5.14c-0.47,-0.62 -1.34,-1.84 -2.01,-3.52c-0.29,-0.59 -0.55,-1.2 -0.76,-1.85c-0.6,-1.8 -0.73,-3.72 -0.36,-5.58c1.38,-7.08 6.74,-10.48 12.02,-11.54c-0.06,-5.2 -0.23,-11.55 -0.52,-19.01c-0.01,-0.27 -0.01,-0.55 0,-0.83c-1.92,-0.89 -3.6,-2.22 -4.91,-3.93c-1.78,-2.27 -2.75,-5.08 -2.75,-7.97c0,-5.05 2.77,-9.38 8.24,-12.88c0.05,-0.03 0.09,-0.06 0.14,-0.08c0.36,-0.23 0.62,-0.41 0.81,-0.54c0.65,-1.06 1.48,-2.01 2.46,-2.8c3.19,-2.58 6.92,-3.94 10.78,-3.94c6.98,0 12.58,4.61 13.96,11.48c0.37,1.87 0.25,3.8 -0.34,5.6c-0.11,1.3 -0.26,3.72 -0.42,8.15c-0.01,0.51 -0.04,1.18 -0.1,2.33c-0.04,0.59 -0.06,1 -0.07,1.23v8.97c0.01,0.3 0.05,0.86 0.1,1.67c0.15,2.17 0.16,2.44 0.16,2.88v9.9c2.8,1.22 5.23,3.36 7.03,6.25c2.19,3.48 1.82,7.01 1.62,8.92z" fill="#00cccc"/><path d="M213.98881,205.35861c-0.763,0.938 -1.525,1.554 -2.287,1.848c-0.763,0.293 -1.906,0.381 -3.431,0.264c-1.701,-0.118 -2.814,-0.118 -3.343,0c-0.059,0 -0.483,0.102 -1.275,0.308c-0.791,0.205 -1.394,0.309 -1.803,0.309c-0.118,0 -0.338,-0.104 -0.66,-0.309c-0.323,-0.206 -0.571,-0.308 -0.747,-0.308c-0.295,0 -1.071,0.044 -2.331,0.132c-1.262,0.088 -2.243,0.132 -2.947,0.132c-1.231,0 -2.493,0 -3.782,0c-1.525,-0.059 -2.405,-0.264 -2.639,-0.615c-0.527,-0.704 -0.792,-1.231 -0.792,-1.583c-0.176,-0.177 -0.322,-0.44 -0.439,-0.792c0.469,-2.404 2.756,-3.371 6.861,-2.902c2.99,0.294 4.75,0.264 5.277,-0.089c0.233,-6.273 0.088,-16.302 -0.439,-30.082c0.233,-2.58 0.468,-6.802 0.703,-12.667c-0.411,-0.058 -0.998,0.207 -1.759,0.792c-0.88,0.763 -1.438,1.203 -1.672,1.319c-0.763,0.294 -1.525,0.44 -2.287,0.44c-0.997,0 -1.729,-0.322 -2.198,-0.968c-0.294,-0.353 -0.44,-0.762 -0.44,-1.231c0,-1.056 1.056,-2.257 3.167,-3.606c2.463,-1.524 3.928,-2.903 4.398,-4.135c1.231,-0.997 2.52,-1.496 3.87,-1.496c1.759,0 2.814,0.88 3.166,2.639c-0.118,0.235 -0.234,0.559 -0.352,0.968c-0.235,1.818 -0.439,5.277 -0.616,10.38c0,0.294 -0.03,0.938 -0.088,1.935c-0.059,0.998 -0.088,1.555 -0.088,1.672v9.411c0,0.118 0.044,0.836 0.132,2.155c0.088,1.319 0.133,2.038 0.133,2.155v20.055c1.583,0.294 2.667,0.323 3.254,0.088c0.762,-0.292 1.437,-0.439 2.023,-0.439c1.349,0 2.492,0.763 3.431,2.287c0.116,0.174 0.116,0.819 0,1.933z" fill="#ffffff"/><path d="M289.12788,193.91c-0.01,0.15 -0.03,0.3 -0.06,0.45c-0.29,2.04 -1.07,3.82 -2.4,6.39c-2.72,5.41 -7.08,9.65 -12.96,12.6c-4.45,2.23 -9.01,3.44 -13.56,3.62c-0.62,0.02 -1.16,0.03 -1.7,0.03c-14.81,0 -22.99,-6.97 -27.24,-12.82c-0.77,-1.05 -1.33,-2.22 -1.68,-3.45c-1.64,-3.49 -2.37,-6.96 -2.17,-10.34c0.08,-1.42 0.33,-3.02 0.78,-4.91c0.02,-1.42 0.32,-2.82 0.88,-4.13c0.6,-1.41 1.25,-2.75 1.94,-4.03c-1,-1.26 -1.82,-2.63 -2.45,-4.1c-0.03,-0.07 -0.06,-0.14 -0.09,-0.21c-1.74,-4.27 -1.74,-8.78 0,-13.05c0.03,-0.08 0.07,-0.16 0.1,-0.23c2.07,-4.75 5.68,-8.78 10.74,-11.96c4.86,-3.06 9.68,-4.67 14.32,-4.77h5.08c5.13,0 9.78,1.07 13.82,3.19c5.76,3 9.68,7.81 11.31,13.91c0.67,2.41 1.29,5.58 0.32,8.96c-0.18,0.68 -0.4,1.34 -0.65,1.99c5.06,5.4 6.22,10.82 6.18,14.77c0.03,1.3 -0.02,3.48 -0.51,8.09z" fill="#00cccc"/><path d="M278.62888,185.891c0.057,1.234 -0.088,3.525 -0.439,6.873c-0.061,0.412 -0.5,1.409 -1.32,2.995c-1.643,3.29 -4.34,5.874 -8.092,7.755c-3.05,1.527 -6.069,2.35 -9.061,2.467c-8.854,0.295 -15.393,-2.463 -19.615,-8.269c0,-0.176 -0.03,-0.38 -0.088,-0.616c-1.231,-2.227 -1.789,-4.25 -1.671,-6.068c0.058,-1.113 0.381,-2.727 0.968,-4.838c-0.06,-0.117 -0.118,-0.293 -0.176,-0.527c2.052,-4.809 4.631,-8.357 7.74,-10.645c-4.398,-1.523 -7.155,-3.576 -8.269,-6.156c-0.646,-1.584 -0.646,-3.167 0,-4.75c1.173,-2.697 3.343,-5.043 6.509,-7.037c3.167,-1.992 6.069,-3.02 8.709,-3.078c0.585,0 1.495,0 2.727,0c0.703,0 1.407,0 2.111,0c3.342,0 6.245,0.646 8.708,1.938c3.048,1.586 4.983,3.936 5.806,7.049c0.408,1.47 0.527,2.498 0.352,3.084c-0.822,2.996 -2.963,5.64 -6.422,7.931c0.704,0.294 1.641,0.705 2.814,1.233c0.881,0.236 2.053,0.734 3.52,1.498c3.576,2.936 5.306,5.989 5.189,9.161zM272.56288,191.995c0.467,-2.756 0.701,-4.514 0.701,-5.277c0,-2.345 -0.791,-4.223 -2.369,-5.629c-2.339,-1.993 -6.196,-3.343 -11.574,-4.047c-0.41,-0.293 -0.907,-0.586 -1.491,-0.879c-1.053,-0.117 -1.727,-0.146 -2.018,-0.088c-2.34,0.293 -4.794,1.906 -7.365,4.838c-2.866,3.225 -4.298,6.451 -4.298,9.676c0,3.46 1.577,6.188 4.735,8.18c2.748,1.76 5.963,2.639 9.646,2.639c1.111,0 2.164,-0.088 3.157,-0.264c1.987,-0.176 4.15,-1.172 6.489,-2.99c2.574,-1.994 4.035,-4.048 4.387,-6.159zM267.01788,161.585c-0.646,-0.885 -1.847,-1.697 -3.606,-2.436c-1.759,-0.736 -3.254,-1.076 -4.485,-1.019c-0.998,0.06 -2.287,0.206 -3.87,0.442c-0.471,0.118 -1.643,0.473 -3.519,1.062c-1.291,0.473 -2.728,1.389 -4.311,2.744c-1.877,1.595 -2.757,2.953 -2.639,4.074c0.352,3.305 3.636,5.017 9.852,5.135c2.814,-0.059 5.102,-0.354 6.861,-0.885c0.937,-0.236 2.08,-0.59 3.43,-1.062c2.169,-1.416 3.255,-3.157 3.255,-5.225c0,-1.001 -0.324,-1.946 -0.968,-2.83z" fill="#ffffff"/></g></g></svg>