<svg version="1.1" xmlns="http://www.w3.org/2000/svg" xmlns:xlink="http://www.w3.org/1999/xlink" width="108.43888" height="79.97" viewBox="0,0,108.43888,79.97"><g transform="translate(-176.51192,-139.11961)"><g data-paper-data="{&quot;isPaintingLayer&quot;:true}" fill-rule="nonzero" stroke="none" stroke-width="1" stroke-linecap="butt" stroke-linejoin="miter" stroke-miterlimit="10" stroke-dasharray="" stroke-dashoffset="0" style="mix-blend-mode: normal"><path d="M224.92881,206.49961c-0.22,2.13 -1.06,4.14 -2.41,5.8c-1.98,2.44 -4.29,4.18 -6.86,5.17c-2.36,0.91 -4.99,1.22 -8.23,0.97c-0.38,-0.03 -0.67,-0.04 -0.88,-0.05c-0.04,0.01 -0.08,0.02 -0.13,0.03c-1.74,0.46 -3.19,0.67 -4.57,0.67c-1.24,0 -2.34,-0.21 -3.29,-0.49c-1.38,0.09 -2.49,0.13 -3.39,0.13h-4.21c-1.91,-0.08 -7.61,-0.3 -11.11,-5.14c-0.47,-0.62 -1.34,-1.84 -2.01,-3.52c-0.29,-0.59 -0.55,-1.2 -0.76,-1.85c-0.6,-1.8 -0.73,-3.72 -0.36,-5.58c1.38,-7.08 6.74,-10.48 12.02,-11.54c-0.06,-5.2 -0.23,-11.55 -0.52,-19.01c-0.01,-0.27 -0.01,-0.55 0,-0.83c-1.92,-0.89 -3.6,-2.22 -4.91,-3.93c-1.78,-2.27 -2.75,-5.08 -2.75,-7.97c0,-5.05 2.77,-9.38 8.24,-12.88c0.05,-0.03 0.09,-0.06 0.14,-0.08c0.36,-0.23 0.62,-0.41 0.81,-0.54c0.65,-1.06 1.48,-2.01 2.46,-2.8c3.19,-2.58 6.92,-3.94 10.78,-3.94c6.98,0 12.58,4.61 13.96,11.48c0.37,1.87 0.25,3.8 -0.34,5.6c-0.11,1.3 -0.26,3.72 -0.42,8.15c-0.01,0.51 -0.04,1.18 -0.1,2.33c-0.04,0.59 -0.06,1 -0.07,1.23v8.97c0.01,0.3 0.05,0.86 0.1,1.67c0.15,2.17 0.16,2.44 0.16,2.88v9.9c2.8,1.22 5.23,3.36 7.03,6.25c2.19,3.48 1.82,7.01 1.62,8.92z" fill="#00cccc"/><path d="M213.98881,205.35861c-0.763,0.938 -1.525,1.554 -2.287,1.848c-0.763,0.293 -1.906,0.381 -3.431,0.264c-1.701,-0.118 -2.814,-0.118 -3.343,0c-0.059,0 -0.483,0.102 -1.275,0.308c-0.791,0.205 -1.394,0.309 -1.803,0.309c-0.118,0 -0.338,-0.104 -0.66,-0.309c-0.323,-0.206 -0.571,-0.308 -0.747,-0.308c-0.295,0 -1.071,0.044 -2.331,0.132c-1.262,0.088 -2.243,0.132 -2.947,0.132c-1.231,0 -2.493,0 -3.782,0c-1.525,-0.059 -2.405,-0.264 -2.639,-0.615c-0.527,-0.704 -0.792,-1.231 -0.792,-1.583c-0.176,-0.177 -0.322,-0.44 -0.439,-0.792c0.469,-2.404 2.756,-3.371 6.861,-2.902c2.99,0.294 4.75,0.264 5.277,-0.089c0.233,-6.273 0.088,-16.302 -0.439,-30.082c0.233,-2.58 0.468,-6.802 0.703,-12.667c-0.411,-0.058 -0.998,0.207 -1.759,0.792c-0.88,0.763 -1.438,1.203 -1.672,1.319c-0.763,0.294 -1.525,0.44 -2.287,0.44c-0.997,0 -1.729,-0.322 -2.198,-0.968c-0.294,-0.353 -0.44,-0.762 -0.44,-1.231c0,-1.056 1.056,-2.257 3.167,-3.606c2.463,-1.524 3.928,-2.903 4.398,-4.135c1.231,-0.997 2.52,-1.496 3.87,-1.496c1.759,0 2.814,0.88 3.166,2.639c-0.118,0.235 -0.234,0.559 -0.352,0.968c-0.235,1.818 -0.439,5.277 -0.616,10.38c0,0.294 -0.03,0.938 -0.088,1.935c-0.059,0.998 -0.088,1.555 -0.088,1.672v9.411c0,0.118 0.044,0.836 0.132,2.155c0.088,1.319 0.133,2.038 0.133,2.155v20.055c1.583,0.294 2.667,0.323 3.254,0.088c0.762,-0.292 1.437,-0.439 2.023,-0.439c1.349,0 2.492,0.763 3.431,2.287c0.116,0.174 0.116,0.819 0,1.933z" fill="#ffffff"/><path d="M284.9508,172.22307c0,3.86 -0.09,7.5 -0.28,10.82c-0.01,0.08 -0.01,0.15 -0.02,0.22c-0.39,5.08 -1.36,9.37 -2.97,13.11c-1.98,4.5 -5.12,8.59 -9.34,12.24c-0.69,0.59 -1.44,1.09 -2.25,1.49l-2.36,1.18c-3.8,2.01 -8.3,3.16 -13.37,3.41c-0.04,0.01 -0.07,0.01 -0.1,0.01c-0.35,0.01 -0.69,0.02 -1.02,0.02c-4.86,0 -9.41,-1.4 -13.54,-4.15c-0.6,-0.4 -1.16,-0.86 -1.68,-1.37c-1.2,-1.21 -1.9,-2.46 -2.38,-3.41c-0.91,-1.84 -1.36,-3.65 -1.36,-5.51c0,-1.06 0.15,-2.1 0.44,-3.1c0.34,-1.87 1.06,-3.62 2.16,-5.16c-2.59,-2.08 -4.62,-4.52 -6.04,-7.3c-1.9,-3.67 -2.95,-7.52 -3.15,-11.43c-0.37,-6.8 0.87,-12.19 3.8,-16.41c2.67,-3.87 6.45,-7.32 11.2,-10.21c5.16,-3.13 9.96,-4.7 14.66,-4.8c0.35,-0.01 0.7,0 1.04,0.02c1.88,0.14 3.03,0.22 3.43,0.25c0.46,0.02 0.92,0.06 1.37,0.14c4.64,0.78 7.72,2.82 9.61,4.61c0.32,0.27 0.7,0.61 1.15,1c0.49,0.43 0.93,0.91 1.34,1.42l2.62,3.33c1.63,2.03 2.79,3.88 3.59,5.72c0.43,0.77 0.93,1.7 1.5,2.79c0.14,0.27 0.27,0.54 0.39,0.82c1.08,2.57 1.56,5.73 1.56,10.25z" fill="#00cccc"/><path d="M273.9518,172.22007c0,3.694 -0.09,7.096 -0.266,10.203c-0.293,3.812 -0.996,7.008 -2.109,9.588c-1.291,2.934 -3.432,5.688 -6.422,8.268c-0.587,0.295 -1.407,0.705 -2.463,1.232c-2.405,1.291 -5.365,2.023 -8.884,2.199c-2.874,0.117 -5.542,-0.645 -8.005,-2.287c-0.059,-0.059 -0.162,-0.234 -0.308,-0.527c-0.146,-0.293 -0.22,-0.498 -0.22,-0.617c0.058,-0.057 0.147,-0.115 0.266,-0.176c-0.237,-1.758 0.734,-2.639 2.913,-2.639c0.765,0 1.441,0.147 2.031,0.44c0.176,0.235 0.501,0.499 0.972,0.792c1.059,0.352 2.118,0.527 3.18,0.527c3.531,0 6.651,-1.584 9.359,-4.75c2.588,-2.932 3.885,-6.01 3.885,-9.236c0,-0.585 -0.059,-1.113 -0.176,-1.582c-2.883,2.756 -6.617,4.133 -11.205,4.133c-3.354,0 -6.544,-0.775 -9.572,-2.33c-3.029,-1.553 -5.133,-3.475 -6.309,-5.762c-1.177,-2.287 -1.824,-4.603 -1.94,-6.949c-0.235,-4.279 0.38,-7.477 1.847,-9.588c1.817,-2.639 4.442,-4.998 7.872,-7.08c3.431,-2.081 6.494,-3.152 9.192,-3.211c2.403,0.176 3.664,0.264 3.782,0.264c1.759,0.295 3.107,0.939 4.046,1.936c0.293,0.234 0.704,0.587 1.232,1.056c0.879,1.114 1.758,2.229 2.639,3.343c1.172,1.467 1.934,2.697 2.287,3.693c0.408,0.704 0.967,1.73 1.67,3.079c0.469,1.114 0.706,3.108 0.706,5.981zM267.3538,165.71007c-0.119,-0.057 -0.309,-0.424 -0.572,-1.099c-0.264,-0.674 -0.602,-1.012 -1.011,-1.012c-0.353,-1.876 -1.056,-3.136 -2.111,-3.782c-0.646,-0.41 -1.144,-0.732 -1.495,-0.968l0.088,-0.088c-0.176,-0.292 -0.528,-0.469 -1.056,-0.528c-0.352,0 -0.704,0 -1.056,0c-1.936,-0.409 -3.313,-0.527 -4.134,-0.352c-1.818,0.352 -3.842,1.379 -6.069,3.079c-2.405,1.759 -3.959,3.548 -4.662,5.365c-0.47,1.114 -0.734,2.347 -0.792,3.694c-0.118,1.525 0.104,3.299 0.663,5.322c0.558,2.022 2.015,3.855 4.369,5.497c2.354,1.643 4.59,2.405 6.709,2.287c2.884,0.411 5.71,-0.88 8.477,-3.87c2.588,-2.873 3.883,-5.894 3.883,-9.061c0,-1.583 -0.439,-2.932 -1.318,-4.046c0.056,-0.114 0.087,-0.261 0.087,-0.438z" fill="#ffffff"/></g></g></svg>